/* XPM */
static char *_229e7938dff4fa4f5b4823b2bf1dd33gXcG8gCMI1mU0Kfu[] = {
/* columns rows colors chars-per-pixel */
"100 100 27 1 ",
"  c #2A1E25",
". c #112024",
"X c #1D3028",
"o c #193133",
"O c #483428",
"+ c #3A5214",
"@ c #27553A",
"# c #615B34",
"$ c #385A5D",
"% c #5E787A",
"& c #7E851B",
"* c #518265",
"= c #9FAB25",
"- c #BDBA25",
"; c #8A8251",
": c #5A6687",
"> c #6E7E91",
", c #959E9E",
"< c #86CF9C",
"1 c #8BD69D",
"2 c #93DBA4",
"3 c #9CE6AD",
"4 c #9DE5BD",
"5 c #A7E4C5",
"6 c #A1F2EC",
"7 c #C8E7C8",
"8 c #EDF6D7",
/* pixels */
"8888888888888888888888888888887777788888888888888888888888888888888888888888888887777777777777774477",
"8888888888888888888888888888887777888888888888888888888888888888888888888888888877777777777777744447",
"8888888888888888888888888888887777888888888888888888888888888888888888888888887777777774444444444444",
"8888888888888888888888888888888777888888888777777788888888888888888888888888777777777444444444444444",
"8888888888888888888888888888888888888888888777777777888888888888888888888887777777744444444444444444",
"8888888888888888888888888888888888888888887777777777777888888888888888888877777777444444444444444444",
"8888888888888888888888888888888888888888887777777777777777888888888888888777777777777444444444444444",
"8888888888888888888888888888888888888877777777777777777777788888888888877777777777777774444444444444",
"8888888888888888888888888888888888887777777777777777777777788888888877777777777777777777744444444444",
"8888888888888888888888888888888888777777777777777777777777777777777777777777777777777777777444444444",
"8888888888888888888888888888888777777777777777777777777777777777777777777777777777777777777744444444",
"7778888888888888888888888888887777777777777777777777777777777777777777777777777777777777777777444474",
"7778888888888888888888888888887777777777777777777777777777777777777444777777777777777777777777777774",
"7778888888888888888888888888887777777777777777777777777777777777744477777777777777777777777777777777",
"8888888888888888888888888888887777777777777777777777777777774444447777777777777777777777777777877777",
"8888888888888888888888888888887777777777777777777777777777444444477777777777777788877=777&7777888777",
"8888888888888888888888888=688877=7777777-77777777777744-4444777777777777777==7&8888===77&&7778888777",
"8888888888888888888=88888==68887===7===--777777=7777444--447777777777==777===8&&888==77&&&7778888877",
"88888888-8888888-88==8================---744777=777==----=======------=&&===88&&&&====&&&&===&&&8887",
"88888888---8888--88==---==========------====447=7===-------==-----=====&&&&=&&&&&&&&&&&&===&&&&77777",
"88888888----==---=---------------==-------------==============--------=======--=======&&==&&&&877777",
"88888888------------=-----------====------------------------------------==--------====&&&&&&&+++++77",
"88----8-------------======-----====================----------------------==--======&&&&&+&&&&+++7777",
"888-===--------------====-------------============------------------=============&&&&&&&+++&&+++7777",
"8888===----=---===---====---==------------------=---=----======---===========+++++&&++&&++++++XXXXX7",
"8&&&&========--=====-====---==------------------==--=----=======--==========+&&&++++++XXXXX++XXXXX74",
"888&&&========-===========--==------------------===-=--==========-===+&&&===+&&+++&&XXX@@*X++XXXX777",
"88++&&&&&---&&&&===&&&=====-=====----=----=----======--====&&&===++==++&&&&=+&+++&&&XXX@@*X+XXXX7777",
"888+++&&&--&&&&&&==&&============---==--====---=&&====-=--=&&&&==+++=+++&&+++++XXX&&XXXX**XXX@@@7777",
"8888++&&&-&&===&&&=&====&&=======--========----=&&&&&&==---=&&&&=+++++++&&++XX+XXXX&X@@XX*XX@***7777",
"8888&&&&&&&&&==&&&&&&&&&&&&&=====-==---===----==&&&&&&===--==&&&++&&&&+X+&++XXX...XXX@@X.XXX**X77777",
"888&&&&&===++==+++&&&&&&&&&&=========--===---=====&&&&&&&-&&&&&&++&&&++XXX++....X..XX.@..XXXXXX77777",
"888&=&&+==+&&&=++&&&+++&&=++==&&&&===--===--=&&===&&+++++&&&&&&&++&&XXXXXXX+....XX.X......XX@*XX7777",
"888==&++==++&&&++==+++++==+++&&&&===&=-====&==&===&&&++&++&&++&&++&XXX@@@.XX....XX...@@@..XX@@*X7777",
"777==++++=+++&&++==++++++=++&&&&&==&&&====&===&&&&&&&++&=+&+++&&+++XXX@@@..XX....X...@@*X....@**7777",
"777=++++++++++&++=++&&&.++++&&+&&=&&&&&===&==&&&&&+&&&++=++++++&++XX...@@..XXX@@......@*X.XXXX5*7777",
"5555++&5+++++.++++++=&&..+++=&+++&&&&&&==&&&=&&++++++++++&&&++++XXX@.XXX@..XXX@@@......*X..XXX555555",
"5555&&55+++++....++..=&...++=++++&&&&&&==&&&&++&&&+++++++&&&+++XX.@@.XXXX..XXX.@@........@@@X5555555",
"5555&5555+&+777.......=...++=&&&+&&+&&&=&&&&&++&&++++++++&&+++XX..***XXXX...XX.@...@@@...*@@55555555",
"555555555&&+555555........+++&&=+&&&+++&&&+++++&++++....+&&..XXX..**..@@@.@@@.......@*...**555555555",
"555555555&&55555555.......++++==++&&++++&&++++++++.......&....X....*..@@@..@*.......**...*.555555555",
"555555555&5555555##OOO.......++=+++&&&+++&++++++..   ......XX..........@@...*.......*.....5555555555",
"55555555555555555####OO.......+++++&&&&&++++++..O     .....XX......@@...@.................5555555555",
"55555555555555555####OOOOO....++++++&&&&+++++..O#OO   .....XX.....**@.......oo$$$$$......55555555555",
"555555555555555######OOOOOO..&&++&&++++&...++..O#OO ........X....****......ooo$$$$$$$$$$%%5555555555",
"55555555555555########OOO##O&&&++&&+&&&&+......O#OOO.............**ooooo..oooooo$$$$$$$%%55555555555",
"55555555555555########OO##OO&&&+&&++=&&++......O##OO...........ooooo$$$$.o.oooooooo%%%%%555555555555",
"55555555555555############OO=&++&+++==&++......O##OO.........oooo$$$$$$$..oooooooooo%%%5555555555555",
"555555555555#########;OOO   =&++++++==+++.......O#OOOOO....oooo$$$$$$$$$..oooooooooooo55555555555555",
"555555555555#;;;;;;;;#O O.  =.++&&++=+............OOOOOO..o.o$$$$$$$$$$$.o.ooooo$$$ooo55555555555555",
"55555555555OOOOOOOOOOO O  ....++&&++++..............OOOOO..o.$$$$$$$$$$%..oooooo$$$$oo55555555555555",
"55555555555OOOOOOOOOOO .  ....+++&+++++...............OOOO..ooooo$$$$%%...oooooo$$$$$$$5555555555555",
"55555555555OOOOOOOO   O ......++++++++....O............OOO.ooooooo%%%....ooooooo$$$$$$$5555555555555",
"5555555555555OOO OO   ......##++OO.......O.O...........O#OO.ooo..........o$$oooo$$$$$%%5555555555555",
"55555555555555O O    ......###+OO#.....OOOOOOO.........##OO.o....oo......$$$$$$.$$$$$%%5555555555555",
"5555555555555555     ......###OO##...######OO..oooo....#;OO.....o$$......$$$$$$..%%%%%$5555555555555",
"55555555555555555555.......###############OO..oooooooo.#;OO....oo$$$$$....$$$$%...$$$$$$555555555555",
"555555555555555555555.....###############OOO..oooooooo.##OO...ooooo$$$$.....%%%..$$$$$$$555555555555",
"555555555555555555555....###############OO....oooooooo.#OOO..o.ooooo$$$$.........$$$$$%%555555555555",
"555555555555555555555....#########;#####OO....oooooooo.OOO....oooooo$$$$.........$$$$%%5555555555555",
"5555555555555555555555..O#########;##OOOOO....ooooooo.OOOO...o.oooo$$$$$$$.......$$$%%55555555555555",
"55555555555555555555555OOO#######;OOOOOO O....oooo##.OOOOO....ooooo$$$$$$$$$.....$%%%555555555555555",
"555555555555555555555555OO;;;;;OOOOOO O O....#####oo.OOOO....oooooo$$$$$$$$$$....%%55555555555555555",
"5555555555555555555555555OOOOOOOOOOOOO  .....ooooooo.OOO.....oooooo$$$$$$$$$%$..%%%55555555555555555",
"55555555555555555555555555OOOOOOOOOOO   ......oooooo...........oooo$$$$$$$$%%$.%%5555555555555555555",
"555555555555555555555555555OOOOOOOOOOO .......oooooooo..........oo$$$$$$$$%%%%oo55555555555555555555",
"5555555555555555555555555555OOOOOOO OO.........ooooooo.............$%%$%%%%%%o.555555555555555555555",
"55555555555555555555555555555oOOOO O   ..........ooo.o...............%%%%%%%..5555555555555555555555",
"555555555555555555555555555555oOO     ...........o..o.o....o.o.   ...........55555555555555555555555",
"5555555555555555555555555555555O O     ...........o.o.......o...   ......555555555555555555555555555",
"5555555555555555555555555555555OO    .....................oo.ooo    ..555555555555555555555555555555",
"5555555555555555555555555555555OO   .............OOO  .....ooooo   ..5555555555555555555555555555555",
"555555555555555555555555555555555   ............O##O  ....oooo$$  O.55555555555555555555555555555555",
"555555555555555555555555555555555   ......oo....O##O  ....ooo%$$ OO##O555555555555555555555555555555",
"5555555555555555555555555555555555 .  ....oooo..OOO. .....%%%$$5 OOO#OO55555555555555555555555555555",
"55555555555555555555555555555555555.  ....oooo.. O........$$$$$5   OOOO55555555555555555555555555555",
"55555555555555555555555555555555555   55..ooooo..O.......55$$$5555  OOO55555555555555555555555555555",
"55555555555555555555555555555555555  O555.o$ooo.  .....5555555555555OO555555555555555555555555555555",
"55555555555555555555555555555555555OOO55555$$$o....OO..5555555555555OO555555555555555555555555555555",
"5555555555>>>>>55555555555555555555#O55555555$$$oooO...555555555555OOO555555555555555555555555555555",
"555555555>>>,,>5555555555555555555#OO5555555555$$oOO...555555555555O55555555555555555555555555555555",
"55555555>>>,,,,55555555555555555###OO5555555555555OO...555555555555555555555555555555555555555555555",
"55555555>>>>>>,5555555555555555OOOOO55555555555555OO..5555555555555555555555555555555555555555555555",
"55555555>,,,,,,5555555555555555OOO5555555555555555OOO55555555555555555555555555555555555555555555555",
"55555555,,,,,,:5555555555555555O55555555555555555##OO55555555555555555555555555555555555555555555555",
"5555555,,,,,,,::55555555555555555555555555555555###OO55555555555555555555555555555555555555555555555",
"5555555,,,,,,:::55555555555555555555555555555555###O555555555555555555555555555555555555555555555555",
"5555555,,,>>>:::55555555555555555555555555555555###5555555555555555555555555555555555555555555555555",
"5555555,,,>>>::::5555555555555555555555555555555##55555555555555555555555555555555555555555555555555",
"5555555,,,>>>::::5555555555555555555555555555555OO55555555555555555555555555555555555555555555555555",
"5555555,,>>>>::::55555555555555555555555555555555O55555555555555555555555555555555555555555555555555",
"555555,,,>>>>::::55555555555555555555555555555555555555555555555555555555555555555555555555555555555",
"555555,,,>>>>:::::5555555555555555555555555555555555555555555555555555555555555555555555555555555555",
"555555,>>>>>>:>>::5555555555555555555555555555555555555555555555555555555555555555555555555555555555",
"555555,>>>>>>:>:::5555555555555555555555555555555555555555555555555555555555555555555555555555555555",
"<<<<<<>>>>>>>::::::<<<<<<<<<<<<<<<<<<<<<<<<<<<<<<<<<<<<<<<<<<<<<<<<<<<<<<<<<<<<<<<<<<<<<<<<<<<<<<<<<",
"111111>>>>,,>>>:::::11111111111111111111111111111111111111111111111111111111111111111111111111111111",
"111111>>>>,>>>>:>>:::2222222111111111111111111111111111111111111111111111111111111111111111111111111",
"111111>>>>,,>>>:>::::3222211111111111111111111111222222222222222222211111111111111111111111111111111",
"111111,,,>>,>:::>:::::111111111112222222222222222222223333333333222222221111222222222333321111111111"
};
